<mxfile host="app.diagrams.net" modified="2023-11-01T18:37:38.061Z" agent="Mozilla/5.0 (Windows NT 10.0; Win64; x64) AppleWebKit/537.36 (KHTML, like Gecko) Chrome/118.0.0.0 Safari/537.36" etag="bxTTPbTZsBIMTEIh7nx4" version="22.0.8" type="device">
  <diagram id="63BBPcMvWA2ueMVpNWyI" name="Page-1">
    <mxGraphModel dx="5061" dy="1160" grid="1" gridSize="10" guides="1" tooltips="1" connect="1" arrows="1" fold="1" page="1" pageScale="1" pageWidth="827" pageHeight="1169" math="0" shadow="0">
      <root>
        <mxCell id="0" />
        <mxCell id="1" parent="0" />
        <mxCell id="jJeBZXFCm9ks7arBBFyv-1" value="Futóbolt_KJSPMW" style="ellipse;whiteSpace=wrap;html=1;" parent="1" vertex="1">
          <mxGeometry x="-75" y="170" width="120" height="50" as="geometry" />
        </mxCell>
        <mxCell id="jJeBZXFCm9ks7arBBFyv-6" value="Raktár" style="ellipse;shape=doubleEllipse;whiteSpace=wrap;html=1;" parent="1" vertex="1">
          <mxGeometry x="-1130" y="370" width="90" height="50" as="geometry" />
        </mxCell>
        <mxCell id="jJeBZXFCm9ks7arBBFyv-7" value="Rendelés" style="ellipse;shape=doubleEllipse;whiteSpace=wrap;html=1;" parent="1" vertex="1">
          <mxGeometry x="-1587.5" y="370" width="90" height="50" as="geometry" />
        </mxCell>
        <mxCell id="jJeBZXFCm9ks7arBBFyv-8" value="Termék" style="ellipse;shape=doubleEllipse;whiteSpace=wrap;html=1;" parent="1" vertex="1">
          <mxGeometry x="440" y="370" width="90" height="50" as="geometry" />
        </mxCell>
        <mxCell id="jJeBZXFCm9ks7arBBFyv-10" value="Alkalmazott" style="ellipse;shape=doubleEllipse;whiteSpace=wrap;html=1;" parent="1" vertex="1">
          <mxGeometry x="-60" y="370" width="90" height="50" as="geometry" />
        </mxCell>
        <mxCell id="jJeBZXFCm9ks7arBBFyv-58" value="Dátum" style="ellipse;whiteSpace=wrap;html=1;" parent="1" vertex="1">
          <mxGeometry x="-1730" y="455" width="60" height="30" as="geometry" />
        </mxCell>
        <mxCell id="jJeBZXFCm9ks7arBBFyv-59" value="Rendelés_Fizetés" style="ellipse;whiteSpace=wrap;html=1;" parent="1" vertex="1">
          <mxGeometry x="-1660" y="455" width="110" height="30" as="geometry" />
        </mxCell>
        <mxCell id="jJeBZXFCm9ks7arBBFyv-61" value="Re_Ár" style="ellipse;whiteSpace=wrap;html=1;" parent="1" vertex="1">
          <mxGeometry x="-1540" y="455" width="60" height="30" as="geometry" />
        </mxCell>
        <mxCell id="jJeBZXFCm9ks7arBBFyv-62" value="" style="rounded=0;whiteSpace=wrap;html=1;rotation=90;" parent="1" vertex="1">
          <mxGeometry x="-1527.5" y="510" width="35" height="20" as="geometry" />
        </mxCell>
        <mxCell id="jJeBZXFCm9ks7arBBFyv-64" value="" style="rounded=0;whiteSpace=wrap;html=1;rotation=90;" parent="1" vertex="1">
          <mxGeometry x="-1717.5" y="505" width="35" height="20" as="geometry" />
        </mxCell>
        <mxCell id="jJeBZXFCm9ks7arBBFyv-65" value="" style="rounded=0;whiteSpace=wrap;html=1;rotation=90;" parent="1" vertex="1">
          <mxGeometry x="-1622.5" y="505" width="35" height="20" as="geometry" />
        </mxCell>
        <mxCell id="jJeBZXFCm9ks7arBBFyv-66" value="" style="endArrow=none;html=1;rounded=0;entryX=0;entryY=0.5;entryDx=0;entryDy=0;exitX=0.5;exitY=1;exitDx=0;exitDy=0;" parent="1" source="jJeBZXFCm9ks7arBBFyv-59" target="jJeBZXFCm9ks7arBBFyv-65" edge="1">
          <mxGeometry width="50" height="50" relative="1" as="geometry">
            <mxPoint x="-1745" y="560" as="sourcePoint" />
            <mxPoint x="-1695" y="510" as="targetPoint" />
          </mxGeometry>
        </mxCell>
        <mxCell id="jJeBZXFCm9ks7arBBFyv-67" value="" style="endArrow=none;html=1;rounded=0;entryX=0;entryY=0.5;entryDx=0;entryDy=0;exitX=0.5;exitY=1;exitDx=0;exitDy=0;" parent="1" source="jJeBZXFCm9ks7arBBFyv-58" target="jJeBZXFCm9ks7arBBFyv-64" edge="1">
          <mxGeometry width="50" height="50" relative="1" as="geometry">
            <mxPoint x="-1725" y="560" as="sourcePoint" />
            <mxPoint x="-1675" y="510" as="targetPoint" />
          </mxGeometry>
        </mxCell>
        <mxCell id="jJeBZXFCm9ks7arBBFyv-68" value="" style="endArrow=none;html=1;rounded=0;entryX=0.5;entryY=1;entryDx=0;entryDy=0;exitX=0;exitY=0.5;exitDx=0;exitDy=0;" parent="1" source="jJeBZXFCm9ks7arBBFyv-62" target="jJeBZXFCm9ks7arBBFyv-61" edge="1">
          <mxGeometry width="50" height="50" relative="1" as="geometry">
            <mxPoint x="-1505" y="615" as="sourcePoint" />
            <mxPoint x="-1455" y="565" as="targetPoint" />
          </mxGeometry>
        </mxCell>
        <mxCell id="jJeBZXFCm9ks7arBBFyv-74" value="" style="group" parent="1" vertex="1" connectable="0">
          <mxGeometry x="-1470" y="450" width="100" height="40" as="geometry" />
        </mxCell>
        <mxCell id="jJeBZXFCm9ks7arBBFyv-72" value="&lt;u&gt;Rendelés_id&lt;/u&gt;" style="rhombus;whiteSpace=wrap;html=1;" parent="jJeBZXFCm9ks7arBBFyv-74" vertex="1">
          <mxGeometry width="100" height="40" as="geometry" />
        </mxCell>
        <mxCell id="jJeBZXFCm9ks7arBBFyv-81" value="" style="endArrow=none;html=1;rounded=0;entryX=0.5;entryY=0;entryDx=0;entryDy=0;exitX=1;exitY=1;exitDx=0;exitDy=0;" parent="1" source="jJeBZXFCm9ks7arBBFyv-7" target="jJeBZXFCm9ks7arBBFyv-72" edge="1">
          <mxGeometry width="50" height="50" relative="1" as="geometry">
            <mxPoint x="-1490" y="630" as="sourcePoint" />
            <mxPoint x="-1440" y="580" as="targetPoint" />
          </mxGeometry>
        </mxCell>
        <mxCell id="jJeBZXFCm9ks7arBBFyv-82" value="" style="endArrow=none;html=1;rounded=0;entryX=0.5;entryY=0;entryDx=0;entryDy=0;exitX=0.5;exitY=1;exitDx=0;exitDy=0;" parent="1" source="jJeBZXFCm9ks7arBBFyv-7" target="jJeBZXFCm9ks7arBBFyv-61" edge="1">
          <mxGeometry width="50" height="50" relative="1" as="geometry">
            <mxPoint x="-1490" y="630" as="sourcePoint" />
            <mxPoint x="-1440" y="580" as="targetPoint" />
          </mxGeometry>
        </mxCell>
        <mxCell id="jJeBZXFCm9ks7arBBFyv-83" value="" style="endArrow=none;html=1;rounded=0;entryX=0.5;entryY=0;entryDx=0;entryDy=0;exitX=0.5;exitY=1;exitDx=0;exitDy=0;" parent="1" source="jJeBZXFCm9ks7arBBFyv-7" target="jJeBZXFCm9ks7arBBFyv-59" edge="1">
          <mxGeometry width="50" height="50" relative="1" as="geometry">
            <mxPoint x="-1490" y="630" as="sourcePoint" />
            <mxPoint x="-1440" y="580" as="targetPoint" />
          </mxGeometry>
        </mxCell>
        <mxCell id="jJeBZXFCm9ks7arBBFyv-84" value="" style="endArrow=none;html=1;rounded=0;entryX=0.5;entryY=0;entryDx=0;entryDy=0;exitX=0;exitY=1;exitDx=0;exitDy=0;" parent="1" source="jJeBZXFCm9ks7arBBFyv-7" target="jJeBZXFCm9ks7arBBFyv-58" edge="1">
          <mxGeometry width="50" height="50" relative="1" as="geometry">
            <mxPoint x="-1490" y="630" as="sourcePoint" />
            <mxPoint x="-1440" y="580" as="targetPoint" />
          </mxGeometry>
        </mxCell>
        <mxCell id="jJeBZXFCm9ks7arBBFyv-87" value="Cipő" style="ellipse;whiteSpace=wrap;html=1;" parent="1" vertex="1">
          <mxGeometry x="384" y="452.5" width="60" height="35" as="geometry" />
        </mxCell>
        <mxCell id="jJeBZXFCm9ks7arBBFyv-88" value="" style="rounded=0;whiteSpace=wrap;html=1;rotation=90;" parent="1" vertex="1">
          <mxGeometry x="396.5" y="510" width="35" height="20" as="geometry" />
        </mxCell>
        <mxCell id="jJeBZXFCm9ks7arBBFyv-89" value="" style="endArrow=none;html=1;rounded=0;entryX=0.5;entryY=1;entryDx=0;entryDy=0;exitX=0;exitY=0.5;exitDx=0;exitDy=0;" parent="1" source="jJeBZXFCm9ks7arBBFyv-88" target="jJeBZXFCm9ks7arBBFyv-87" edge="1">
          <mxGeometry width="50" height="50" relative="1" as="geometry">
            <mxPoint x="495" y="555" as="sourcePoint" />
            <mxPoint x="545" y="505" as="targetPoint" />
          </mxGeometry>
        </mxCell>
        <mxCell id="jJeBZXFCm9ks7arBBFyv-90" value="Ruha" style="ellipse;whiteSpace=wrap;html=1;" parent="1" vertex="1">
          <mxGeometry x="455" y="452.5" width="60" height="35" as="geometry" />
        </mxCell>
        <mxCell id="jJeBZXFCm9ks7arBBFyv-91" value="" style="rounded=0;whiteSpace=wrap;html=1;rotation=90;" parent="1" vertex="1">
          <mxGeometry x="467.5" y="510" width="35" height="20" as="geometry" />
        </mxCell>
        <mxCell id="jJeBZXFCm9ks7arBBFyv-92" value="" style="endArrow=none;html=1;rounded=0;entryX=0.5;entryY=1;entryDx=0;entryDy=0;exitX=0;exitY=0.5;exitDx=0;exitDy=0;" parent="1" source="jJeBZXFCm9ks7arBBFyv-91" target="jJeBZXFCm9ks7arBBFyv-90" edge="1">
          <mxGeometry width="50" height="50" relative="1" as="geometry">
            <mxPoint x="572" y="555" as="sourcePoint" />
            <mxPoint x="622" y="505" as="targetPoint" />
          </mxGeometry>
        </mxCell>
        <mxCell id="jJeBZXFCm9ks7arBBFyv-99" value="Kiegészítő" style="ellipse;whiteSpace=wrap;html=1;aspect=fixed;" parent="1" vertex="1">
          <mxGeometry x="530" y="452.5" width="61.25" height="35" as="geometry" />
        </mxCell>
        <mxCell id="jJeBZXFCm9ks7arBBFyv-100" value="" style="rounded=0;whiteSpace=wrap;html=1;rotation=90;" parent="1" vertex="1">
          <mxGeometry x="543.13" y="510" width="35" height="20" as="geometry" />
        </mxCell>
        <mxCell id="jJeBZXFCm9ks7arBBFyv-101" value="" style="endArrow=none;html=1;rounded=0;entryX=0.5;entryY=1;entryDx=0;entryDy=0;exitX=0;exitY=0.5;exitDx=0;exitDy=0;" parent="1" source="jJeBZXFCm9ks7arBBFyv-100" target="jJeBZXFCm9ks7arBBFyv-99" edge="1">
          <mxGeometry width="50" height="50" relative="1" as="geometry">
            <mxPoint x="625" y="565" as="sourcePoint" />
            <mxPoint x="675" y="515" as="targetPoint" />
          </mxGeometry>
        </mxCell>
        <mxCell id="jJeBZXFCm9ks7arBBFyv-108" value="&lt;u&gt;Termék_id&lt;/u&gt;" style="rhombus;whiteSpace=wrap;html=1;" parent="1" vertex="1">
          <mxGeometry x="280" y="450" width="90" height="40" as="geometry" />
        </mxCell>
        <mxCell id="jJeBZXFCm9ks7arBBFyv-115" value="" style="endArrow=none;html=1;rounded=0;entryX=0.5;entryY=0;entryDx=0;entryDy=0;exitX=1;exitY=1;exitDx=0;exitDy=0;" parent="1" source="jJeBZXFCm9ks7arBBFyv-8" target="jJeBZXFCm9ks7arBBFyv-99" edge="1">
          <mxGeometry width="50" height="50" relative="1" as="geometry">
            <mxPoint x="420" y="650" as="sourcePoint" />
            <mxPoint x="470" y="600" as="targetPoint" />
          </mxGeometry>
        </mxCell>
        <mxCell id="jJeBZXFCm9ks7arBBFyv-116" value="" style="endArrow=none;html=1;rounded=0;entryX=0.5;entryY=0;entryDx=0;entryDy=0;exitX=0.5;exitY=1;exitDx=0;exitDy=0;" parent="1" source="jJeBZXFCm9ks7arBBFyv-8" target="jJeBZXFCm9ks7arBBFyv-90" edge="1">
          <mxGeometry width="50" height="50" relative="1" as="geometry">
            <mxPoint x="420" y="650" as="sourcePoint" />
            <mxPoint x="470" y="600" as="targetPoint" />
          </mxGeometry>
        </mxCell>
        <mxCell id="jJeBZXFCm9ks7arBBFyv-117" value="" style="endArrow=none;html=1;rounded=0;entryX=0;entryY=1;entryDx=0;entryDy=0;exitX=0.5;exitY=0;exitDx=0;exitDy=0;" parent="1" source="jJeBZXFCm9ks7arBBFyv-87" target="jJeBZXFCm9ks7arBBFyv-8" edge="1">
          <mxGeometry width="50" height="50" relative="1" as="geometry">
            <mxPoint x="420" y="650" as="sourcePoint" />
            <mxPoint x="470" y="600" as="targetPoint" />
          </mxGeometry>
        </mxCell>
        <mxCell id="jJeBZXFCm9ks7arBBFyv-118" value="" style="endArrow=none;html=1;rounded=0;entryX=0;entryY=0.5;entryDx=0;entryDy=0;exitX=0.5;exitY=0;exitDx=0;exitDy=0;" parent="1" source="jJeBZXFCm9ks7arBBFyv-108" target="jJeBZXFCm9ks7arBBFyv-8" edge="1">
          <mxGeometry width="50" height="50" relative="1" as="geometry">
            <mxPoint x="420" y="650" as="sourcePoint" />
            <mxPoint x="470" y="600" as="targetPoint" />
          </mxGeometry>
        </mxCell>
        <mxCell id="jJeBZXFCm9ks7arBBFyv-122" value="Raktár_Ár" style="ellipse;whiteSpace=wrap;html=1;" parent="1" vertex="1">
          <mxGeometry x="-1070" y="452.5" width="70" height="35" as="geometry" />
        </mxCell>
        <mxCell id="jJeBZXFCm9ks7arBBFyv-123" value="" style="rounded=0;whiteSpace=wrap;html=1;rotation=90;" parent="1" vertex="1">
          <mxGeometry x="-1052.5" y="510" width="35" height="20" as="geometry" />
        </mxCell>
        <mxCell id="jJeBZXFCm9ks7arBBFyv-124" value="" style="endArrow=none;html=1;rounded=0;entryX=0.5;entryY=1;entryDx=0;entryDy=0;exitX=0;exitY=0.5;exitDx=0;exitDy=0;" parent="1" source="jJeBZXFCm9ks7arBBFyv-123" target="jJeBZXFCm9ks7arBBFyv-122" edge="1">
          <mxGeometry width="50" height="50" relative="1" as="geometry">
            <mxPoint x="-995" y="545" as="sourcePoint" />
            <mxPoint x="-945" y="495" as="targetPoint" />
          </mxGeometry>
        </mxCell>
        <mxCell id="jJeBZXFCm9ks7arBBFyv-125" value="Raktár_típus" style="ellipse;whiteSpace=wrap;html=1;" parent="1" vertex="1">
          <mxGeometry x="-980" y="452.5" width="80" height="35" as="geometry" />
        </mxCell>
        <mxCell id="jJeBZXFCm9ks7arBBFyv-126" value="" style="rounded=0;whiteSpace=wrap;html=1;rotation=90;" parent="1" vertex="1">
          <mxGeometry x="-957.5" y="510" width="35" height="20" as="geometry" />
        </mxCell>
        <mxCell id="jJeBZXFCm9ks7arBBFyv-127" value="" style="endArrow=none;html=1;rounded=0;entryX=0.5;entryY=1;entryDx=0;entryDy=0;exitX=0;exitY=0.5;exitDx=0;exitDy=0;" parent="1" source="jJeBZXFCm9ks7arBBFyv-126" target="jJeBZXFCm9ks7arBBFyv-125" edge="1">
          <mxGeometry width="50" height="50" relative="1" as="geometry">
            <mxPoint x="-905" y="555" as="sourcePoint" />
            <mxPoint x="-855" y="505" as="targetPoint" />
          </mxGeometry>
        </mxCell>
        <mxCell id="jJeBZXFCm9ks7arBBFyv-128" value="Ra_darabszám" style="ellipse;whiteSpace=wrap;html=1;" parent="1" vertex="1">
          <mxGeometry x="-1200" y="452.5" width="100" height="35" as="geometry" />
        </mxCell>
        <mxCell id="jJeBZXFCm9ks7arBBFyv-129" value="" style="rounded=0;whiteSpace=wrap;html=1;rotation=90;" parent="1" vertex="1">
          <mxGeometry x="-1167.5" y="510" width="35" height="20" as="geometry" />
        </mxCell>
        <mxCell id="jJeBZXFCm9ks7arBBFyv-130" value="" style="endArrow=none;html=1;rounded=0;entryX=0.5;entryY=1;entryDx=0;entryDy=0;exitX=0;exitY=0.5;exitDx=0;exitDy=0;" parent="1" source="jJeBZXFCm9ks7arBBFyv-129" target="jJeBZXFCm9ks7arBBFyv-128" edge="1">
          <mxGeometry width="50" height="50" relative="1" as="geometry">
            <mxPoint x="-1065" y="545" as="sourcePoint" />
            <mxPoint x="-1015" y="495" as="targetPoint" />
          </mxGeometry>
        </mxCell>
        <mxCell id="jJeBZXFCm9ks7arBBFyv-132" value="&lt;u&gt;Raktár_id&lt;/u&gt;" style="rhombus;whiteSpace=wrap;html=1;" parent="1" vertex="1">
          <mxGeometry x="-880" y="450" width="100" height="40" as="geometry" />
        </mxCell>
        <mxCell id="jJeBZXFCm9ks7arBBFyv-135" value="" style="endArrow=none;html=1;rounded=0;entryX=0.5;entryY=0;entryDx=0;entryDy=0;exitX=0.5;exitY=1;exitDx=0;exitDy=0;" parent="1" source="jJeBZXFCm9ks7arBBFyv-6" target="jJeBZXFCm9ks7arBBFyv-128" edge="1">
          <mxGeometry width="50" height="50" relative="1" as="geometry">
            <mxPoint x="-1080" y="490" as="sourcePoint" />
            <mxPoint x="-1030" y="440" as="targetPoint" />
          </mxGeometry>
        </mxCell>
        <mxCell id="jJeBZXFCm9ks7arBBFyv-136" value="" style="endArrow=none;html=1;rounded=0;entryX=0.5;entryY=0;entryDx=0;entryDy=0;exitX=1;exitY=0.5;exitDx=0;exitDy=0;" parent="1" source="jJeBZXFCm9ks7arBBFyv-6" target="jJeBZXFCm9ks7arBBFyv-132" edge="1">
          <mxGeometry width="50" height="50" relative="1" as="geometry">
            <mxPoint x="-1080" y="490" as="sourcePoint" />
            <mxPoint x="-1030" y="440" as="targetPoint" />
          </mxGeometry>
        </mxCell>
        <mxCell id="jJeBZXFCm9ks7arBBFyv-137" value="" style="endArrow=none;html=1;rounded=0;entryX=0.5;entryY=1;entryDx=0;entryDy=0;exitX=0.5;exitY=0;exitDx=0;exitDy=0;" parent="1" source="jJeBZXFCm9ks7arBBFyv-122" target="jJeBZXFCm9ks7arBBFyv-6" edge="1">
          <mxGeometry width="50" height="50" relative="1" as="geometry">
            <mxPoint x="-1080" y="490" as="sourcePoint" />
            <mxPoint x="-1030" y="440" as="targetPoint" />
          </mxGeometry>
        </mxCell>
        <mxCell id="jJeBZXFCm9ks7arBBFyv-138" value="" style="endArrow=none;html=1;rounded=0;entryX=0.5;entryY=0;entryDx=0;entryDy=0;exitX=1;exitY=1;exitDx=0;exitDy=0;" parent="1" source="jJeBZXFCm9ks7arBBFyv-6" target="jJeBZXFCm9ks7arBBFyv-125" edge="1">
          <mxGeometry width="50" height="50" relative="1" as="geometry">
            <mxPoint x="-1080" y="490" as="sourcePoint" />
            <mxPoint x="-1030" y="440" as="targetPoint" />
          </mxGeometry>
        </mxCell>
        <mxCell id="jJeBZXFCm9ks7arBBFyv-150" value="Beosztás" style="ellipse;whiteSpace=wrap;html=1;" parent="1" vertex="1">
          <mxGeometry x="-50" y="452.5" width="70" height="35" as="geometry" />
        </mxCell>
        <mxCell id="jJeBZXFCm9ks7arBBFyv-151" value="" style="rounded=0;whiteSpace=wrap;html=1;rotation=90;" parent="1" vertex="1">
          <mxGeometry x="-32.5" y="505" width="35" height="20" as="geometry" />
        </mxCell>
        <mxCell id="jJeBZXFCm9ks7arBBFyv-152" value="" style="endArrow=none;html=1;rounded=0;entryX=0.5;entryY=1;entryDx=0;entryDy=0;exitX=0;exitY=0.5;exitDx=0;exitDy=0;" parent="1" source="jJeBZXFCm9ks7arBBFyv-151" target="jJeBZXFCm9ks7arBBFyv-150" edge="1">
          <mxGeometry width="50" height="50" relative="1" as="geometry">
            <mxPoint x="53.75" y="540" as="sourcePoint" />
            <mxPoint x="103.75" y="490" as="targetPoint" />
          </mxGeometry>
        </mxCell>
        <mxCell id="jJeBZXFCm9ks7arBBFyv-163" value="Csatlakozás" style="ellipse;whiteSpace=wrap;html=1;" parent="1" vertex="1">
          <mxGeometry x="41.25" y="452.5" width="70" height="35" as="geometry" />
        </mxCell>
        <mxCell id="jJeBZXFCm9ks7arBBFyv-164" value="" style="rounded=0;whiteSpace=wrap;html=1;rotation=90;" parent="1" vertex="1">
          <mxGeometry x="58.75" y="505" width="35" height="20" as="geometry" />
        </mxCell>
        <mxCell id="jJeBZXFCm9ks7arBBFyv-165" value="" style="endArrow=none;html=1;rounded=0;entryX=0.5;entryY=1;entryDx=0;entryDy=0;exitX=0;exitY=0.5;exitDx=0;exitDy=0;" parent="1" source="jJeBZXFCm9ks7arBBFyv-164" target="jJeBZXFCm9ks7arBBFyv-163" edge="1">
          <mxGeometry width="50" height="50" relative="1" as="geometry">
            <mxPoint x="133.75" y="540" as="sourcePoint" />
            <mxPoint x="183.75" y="490" as="targetPoint" />
          </mxGeometry>
        </mxCell>
        <mxCell id="jJeBZXFCm9ks7arBBFyv-166" value="Alkalmazott_fizetés" style="ellipse;whiteSpace=wrap;html=1;" parent="1" vertex="1">
          <mxGeometry x="-177.5" y="452.5" width="117.5" height="35" as="geometry" />
        </mxCell>
        <mxCell id="jJeBZXFCm9ks7arBBFyv-167" value="" style="rounded=0;whiteSpace=wrap;html=1;rotation=90;" parent="1" vertex="1">
          <mxGeometry x="-136.25" y="505" width="35" height="20" as="geometry" />
        </mxCell>
        <mxCell id="jJeBZXFCm9ks7arBBFyv-168" value="" style="endArrow=none;html=1;rounded=0;entryX=0.5;entryY=1;entryDx=0;entryDy=0;exitX=0;exitY=0.5;exitDx=0;exitDy=0;" parent="1" source="jJeBZXFCm9ks7arBBFyv-167" target="jJeBZXFCm9ks7arBBFyv-166" edge="1">
          <mxGeometry width="50" height="50" relative="1" as="geometry">
            <mxPoint x="-77.25" y="540" as="sourcePoint" />
            <mxPoint x="-27.25" y="490" as="targetPoint" />
          </mxGeometry>
        </mxCell>
        <mxCell id="jJeBZXFCm9ks7arBBFyv-169" value="Alkalmazott_név" style="ellipse;whiteSpace=wrap;html=1;" parent="1" vertex="1">
          <mxGeometry x="-300" y="452.5" width="110" height="35" as="geometry" />
        </mxCell>
        <mxCell id="jJeBZXFCm9ks7arBBFyv-170" value="" style="rounded=0;whiteSpace=wrap;html=1;rotation=90;" parent="1" vertex="1">
          <mxGeometry x="-262.5" y="505" width="35" height="20" as="geometry" />
        </mxCell>
        <mxCell id="jJeBZXFCm9ks7arBBFyv-171" value="" style="endArrow=none;html=1;rounded=0;entryX=0.5;entryY=1;entryDx=0;entryDy=0;exitX=0;exitY=0.5;exitDx=0;exitDy=0;" parent="1" source="jJeBZXFCm9ks7arBBFyv-170" target="jJeBZXFCm9ks7arBBFyv-169" edge="1">
          <mxGeometry width="50" height="50" relative="1" as="geometry">
            <mxPoint x="-196.25" y="540" as="sourcePoint" />
            <mxPoint x="-146.25" y="490" as="targetPoint" />
          </mxGeometry>
        </mxCell>
        <mxCell id="jJeBZXFCm9ks7arBBFyv-173" value="&lt;u&gt;Alkalmazott_id&lt;/u&gt;" style="rhombus;whiteSpace=wrap;html=1;" parent="1" vertex="1">
          <mxGeometry x="140" y="450" width="100" height="40" as="geometry" />
        </mxCell>
        <mxCell id="jJeBZXFCm9ks7arBBFyv-176" value="" style="endArrow=none;html=1;rounded=0;entryX=0.5;entryY=0;entryDx=0;entryDy=0;exitX=0;exitY=1;exitDx=0;exitDy=0;" parent="1" source="jJeBZXFCm9ks7arBBFyv-10" target="jJeBZXFCm9ks7arBBFyv-166" edge="1">
          <mxGeometry width="50" height="50" relative="1" as="geometry">
            <mxPoint x="-121.25" y="525" as="sourcePoint" />
            <mxPoint x="-71.25" y="475" as="targetPoint" />
          </mxGeometry>
        </mxCell>
        <mxCell id="jJeBZXFCm9ks7arBBFyv-177" value="" style="endArrow=none;html=1;rounded=0;entryX=0.5;entryY=0;entryDx=0;entryDy=0;exitX=0;exitY=0.5;exitDx=0;exitDy=0;" parent="1" source="jJeBZXFCm9ks7arBBFyv-10" target="jJeBZXFCm9ks7arBBFyv-169" edge="1">
          <mxGeometry width="50" height="50" relative="1" as="geometry">
            <mxPoint x="-121.25" y="525" as="sourcePoint" />
            <mxPoint x="-71.25" y="475" as="targetPoint" />
          </mxGeometry>
        </mxCell>
        <mxCell id="jJeBZXFCm9ks7arBBFyv-178" value="" style="endArrow=none;html=1;rounded=0;entryX=0.5;entryY=1;entryDx=0;entryDy=0;exitX=0.5;exitY=0;exitDx=0;exitDy=0;" parent="1" source="jJeBZXFCm9ks7arBBFyv-150" target="jJeBZXFCm9ks7arBBFyv-10" edge="1">
          <mxGeometry width="50" height="50" relative="1" as="geometry">
            <mxPoint x="-121.25" y="525" as="sourcePoint" />
            <mxPoint x="-71.25" y="475" as="targetPoint" />
          </mxGeometry>
        </mxCell>
        <mxCell id="jJeBZXFCm9ks7arBBFyv-179" value="" style="endArrow=none;html=1;rounded=0;entryX=0.5;entryY=0;entryDx=0;entryDy=0;exitX=1;exitY=1;exitDx=0;exitDy=0;" parent="1" source="jJeBZXFCm9ks7arBBFyv-10" target="jJeBZXFCm9ks7arBBFyv-163" edge="1">
          <mxGeometry width="50" height="50" relative="1" as="geometry">
            <mxPoint x="-121.25" y="525" as="sourcePoint" />
            <mxPoint x="-71.25" y="475" as="targetPoint" />
          </mxGeometry>
        </mxCell>
        <mxCell id="jJeBZXFCm9ks7arBBFyv-181" value="" style="endArrow=none;html=1;rounded=0;exitX=1;exitY=0.5;exitDx=0;exitDy=0;entryX=0.5;entryY=0;entryDx=0;entryDy=0;" parent="1" source="jJeBZXFCm9ks7arBBFyv-10" target="jJeBZXFCm9ks7arBBFyv-173" edge="1">
          <mxGeometry width="50" height="50" relative="1" as="geometry">
            <mxPoint x="-121.25" y="525" as="sourcePoint" />
            <mxPoint x="-71.25" y="475" as="targetPoint" />
          </mxGeometry>
        </mxCell>
        <mxCell id="0SyIwUQJEbW2ERKStpPj-2" value="" style="endArrow=none;html=1;rounded=0;exitX=0.5;exitY=0;exitDx=0;exitDy=0;entryX=0;entryY=0.5;entryDx=0;entryDy=0;" parent="1" source="jJeBZXFCm9ks7arBBFyv-7" target="jJeBZXFCm9ks7arBBFyv-1" edge="1">
          <mxGeometry width="50" height="50" relative="1" as="geometry">
            <mxPoint x="-220" y="300" as="sourcePoint" />
            <mxPoint x="-170" y="250" as="targetPoint" />
          </mxGeometry>
        </mxCell>
        <mxCell id="0SyIwUQJEbW2ERKStpPj-3" value="" style="endArrow=none;html=1;rounded=0;exitX=0.5;exitY=0;exitDx=0;exitDy=0;entryX=0.5;entryY=1;entryDx=0;entryDy=0;" parent="1" source="jJeBZXFCm9ks7arBBFyv-10" target="jJeBZXFCm9ks7arBBFyv-1" edge="1">
          <mxGeometry width="50" height="50" relative="1" as="geometry">
            <mxPoint x="-220" y="300" as="sourcePoint" />
            <mxPoint x="-170" y="250" as="targetPoint" />
          </mxGeometry>
        </mxCell>
        <mxCell id="0SyIwUQJEbW2ERKStpPj-4" value="" style="endArrow=none;html=1;rounded=0;exitX=0.5;exitY=0;exitDx=0;exitDy=0;entryX=0;entryY=1;entryDx=0;entryDy=0;" parent="1" source="jJeBZXFCm9ks7arBBFyv-6" target="jJeBZXFCm9ks7arBBFyv-1" edge="1">
          <mxGeometry width="50" height="50" relative="1" as="geometry">
            <mxPoint x="-220" y="300" as="sourcePoint" />
            <mxPoint x="-170" y="250" as="targetPoint" />
          </mxGeometry>
        </mxCell>
        <mxCell id="0SyIwUQJEbW2ERKStpPj-5" value="" style="endArrow=none;html=1;rounded=0;exitX=0.5;exitY=0;exitDx=0;exitDy=0;entryX=0.5;entryY=1;entryDx=0;entryDy=0;" parent="1" source="jJeBZXFCm9ks7arBBFyv-8" target="jJeBZXFCm9ks7arBBFyv-1" edge="1">
          <mxGeometry width="50" height="50" relative="1" as="geometry">
            <mxPoint x="-220" y="300" as="sourcePoint" />
            <mxPoint x="-170" y="250" as="targetPoint" />
          </mxGeometry>
        </mxCell>
        <mxCell id="0SyIwUQJEbW2ERKStpPj-6" value="" style="endArrow=none;html=1;rounded=0;exitX=0.5;exitY=0;exitDx=0;exitDy=0;entryX=1;entryY=0.5;entryDx=0;entryDy=0;" parent="1" source="jJeBZXFCm9ks7arBBFyv-9" target="jJeBZXFCm9ks7arBBFyv-1" edge="1">
          <mxGeometry width="50" height="50" relative="1" as="geometry">
            <mxPoint x="-220" y="300" as="sourcePoint" />
            <mxPoint x="-170" y="250" as="targetPoint" />
          </mxGeometry>
        </mxCell>
        <mxCell id="jJeBZXFCm9ks7arBBFyv-9" value="Vevő" style="ellipse;shape=doubleEllipse;whiteSpace=wrap;html=1;" parent="1" vertex="1">
          <mxGeometry x="1015" y="370" width="90" height="50" as="geometry" />
        </mxCell>
        <mxCell id="jJeBZXFCm9ks7arBBFyv-11" value="Email" style="ellipse;whiteSpace=wrap;html=1;" parent="1" vertex="1">
          <mxGeometry x="1180" y="455" width="60" height="30" as="geometry" />
        </mxCell>
        <mxCell id="jJeBZXFCm9ks7arBBFyv-13" value="Telefonszám" style="ellipse;whiteSpace=wrap;html=1;dashed=1;" parent="1" vertex="1">
          <mxGeometry x="860" y="455" width="80" height="30" as="geometry" />
        </mxCell>
        <mxCell id="jJeBZXFCm9ks7arBBFyv-16" value="Név" style="ellipse;whiteSpace=wrap;html=1;" parent="1" vertex="1">
          <mxGeometry x="760" y="452.5" width="60" height="35" as="geometry" />
        </mxCell>
        <mxCell id="jJeBZXFCm9ks7arBBFyv-34" value="" style="endArrow=none;html=1;rounded=0;entryX=0.5;entryY=0;entryDx=0;entryDy=0;exitX=0.5;exitY=1;exitDx=0;exitDy=0;" parent="1" source="jJeBZXFCm9ks7arBBFyv-9" target="jJeBZXFCm9ks7arBBFyv-22" edge="1">
          <mxGeometry width="50" height="50" relative="1" as="geometry">
            <mxPoint x="970" y="460" as="sourcePoint" />
            <mxPoint x="1020" y="410" as="targetPoint" />
          </mxGeometry>
        </mxCell>
        <mxCell id="jJeBZXFCm9ks7arBBFyv-35" value="" style="rounded=0;whiteSpace=wrap;html=1;rotation=90;" parent="1" vertex="1">
          <mxGeometry x="927.5" y="595" width="35" height="20" as="geometry" />
        </mxCell>
        <mxCell id="jJeBZXFCm9ks7arBBFyv-36" value="" style="rounded=0;whiteSpace=wrap;html=1;rotation=90;" parent="1" vertex="1">
          <mxGeometry x="1157.5" y="595" width="35" height="20" as="geometry" />
        </mxCell>
        <mxCell id="jJeBZXFCm9ks7arBBFyv-37" value="" style="rounded=0;whiteSpace=wrap;html=1;rotation=90;" parent="1" vertex="1">
          <mxGeometry x="1007.5" y="595" width="35" height="20" as="geometry" />
        </mxCell>
        <mxCell id="jJeBZXFCm9ks7arBBFyv-38" value="" style="rounded=0;whiteSpace=wrap;html=1;rotation=90;" parent="1" vertex="1">
          <mxGeometry x="1087.5" y="595" width="35" height="20" as="geometry" />
        </mxCell>
        <mxCell id="jJeBZXFCm9ks7arBBFyv-39" value="" style="endArrow=none;html=1;rounded=0;entryX=0;entryY=0.5;entryDx=0;entryDy=0;exitX=0.5;exitY=1;exitDx=0;exitDy=0;" parent="1" source="jJeBZXFCm9ks7arBBFyv-19" target="jJeBZXFCm9ks7arBBFyv-38" edge="1">
          <mxGeometry width="50" height="50" relative="1" as="geometry">
            <mxPoint x="990" y="650" as="sourcePoint" />
            <mxPoint x="1040" y="600" as="targetPoint" />
          </mxGeometry>
        </mxCell>
        <mxCell id="jJeBZXFCm9ks7arBBFyv-40" value="" style="endArrow=none;html=1;rounded=0;entryX=0;entryY=0.5;entryDx=0;entryDy=0;exitX=0.5;exitY=1;exitDx=0;exitDy=0;" parent="1" source="jJeBZXFCm9ks7arBBFyv-14" target="jJeBZXFCm9ks7arBBFyv-37" edge="1">
          <mxGeometry width="50" height="50" relative="1" as="geometry">
            <mxPoint x="990" y="650" as="sourcePoint" />
            <mxPoint x="1040" y="600" as="targetPoint" />
          </mxGeometry>
        </mxCell>
        <mxCell id="jJeBZXFCm9ks7arBBFyv-41" value="" style="endArrow=none;html=1;rounded=0;entryX=0.5;entryY=1;entryDx=0;entryDy=0;exitX=0;exitY=0.5;exitDx=0;exitDy=0;" parent="1" source="jJeBZXFCm9ks7arBBFyv-35" target="jJeBZXFCm9ks7arBBFyv-21" edge="1">
          <mxGeometry width="50" height="50" relative="1" as="geometry">
            <mxPoint x="990" y="650" as="sourcePoint" />
            <mxPoint x="1040" y="600" as="targetPoint" />
          </mxGeometry>
        </mxCell>
        <mxCell id="jJeBZXFCm9ks7arBBFyv-42" value="" style="endArrow=none;html=1;rounded=0;entryX=0.5;entryY=1;entryDx=0;entryDy=0;exitX=0;exitY=0.5;exitDx=0;exitDy=0;" parent="1" source="jJeBZXFCm9ks7arBBFyv-36" target="jJeBZXFCm9ks7arBBFyv-20" edge="1">
          <mxGeometry width="50" height="50" relative="1" as="geometry">
            <mxPoint x="1100" y="650" as="sourcePoint" />
            <mxPoint x="1150" y="600" as="targetPoint" />
          </mxGeometry>
        </mxCell>
        <mxCell id="jJeBZXFCm9ks7arBBFyv-43" value="" style="rounded=0;whiteSpace=wrap;html=1;rotation=90;" parent="1" vertex="1">
          <mxGeometry x="1192.5" y="510" width="35" height="20" as="geometry" />
        </mxCell>
        <mxCell id="jJeBZXFCm9ks7arBBFyv-44" value="" style="endArrow=none;html=1;rounded=0;entryX=0.5;entryY=1;entryDx=0;entryDy=0;exitX=0;exitY=0.5;exitDx=0;exitDy=0;" parent="1" source="jJeBZXFCm9ks7arBBFyv-43" target="jJeBZXFCm9ks7arBBFyv-11" edge="1">
          <mxGeometry width="50" height="50" relative="1" as="geometry">
            <mxPoint x="1075" y="510" as="sourcePoint" />
            <mxPoint x="1125" y="460" as="targetPoint" />
          </mxGeometry>
        </mxCell>
        <mxCell id="jJeBZXFCm9ks7arBBFyv-45" value="" style="rounded=0;whiteSpace=wrap;html=1;rotation=90;" parent="1" vertex="1">
          <mxGeometry x="882.5" y="510" width="35" height="20" as="geometry" />
        </mxCell>
        <mxCell id="jJeBZXFCm9ks7arBBFyv-46" value="" style="rounded=0;whiteSpace=wrap;html=1;rotation=90;" parent="1" vertex="1">
          <mxGeometry x="772.5" y="510" width="35" height="20" as="geometry" />
        </mxCell>
        <mxCell id="jJeBZXFCm9ks7arBBFyv-48" value="" style="endArrow=none;html=1;rounded=0;entryX=0.5;entryY=1;entryDx=0;entryDy=0;exitX=0;exitY=0.5;exitDx=0;exitDy=0;" parent="1" source="jJeBZXFCm9ks7arBBFyv-45" target="jJeBZXFCm9ks7arBBFyv-13" edge="1">
          <mxGeometry width="50" height="50" relative="1" as="geometry">
            <mxPoint x="780" y="630" as="sourcePoint" />
            <mxPoint x="830" y="580" as="targetPoint" />
          </mxGeometry>
        </mxCell>
        <mxCell id="jJeBZXFCm9ks7arBBFyv-49" value="" style="endArrow=none;html=1;rounded=0;entryX=0.5;entryY=1;entryDx=0;entryDy=0;exitX=0;exitY=0.5;exitDx=0;exitDy=0;" parent="1" source="jJeBZXFCm9ks7arBBFyv-46" target="jJeBZXFCm9ks7arBBFyv-16" edge="1">
          <mxGeometry width="50" height="50" relative="1" as="geometry">
            <mxPoint x="1010" y="650" as="sourcePoint" />
            <mxPoint x="1060" y="600" as="targetPoint" />
          </mxGeometry>
        </mxCell>
        <mxCell id="jJeBZXFCm9ks7arBBFyv-51" value="" style="endArrow=none;html=1;rounded=0;entryX=0.5;entryY=0;entryDx=0;entryDy=0;exitX=0.5;exitY=1;exitDx=0;exitDy=0;" parent="1" source="jJeBZXFCm9ks7arBBFyv-9" target="jJeBZXFCm9ks7arBBFyv-11" edge="1">
          <mxGeometry width="50" height="50" relative="1" as="geometry">
            <mxPoint x="1040" y="540" as="sourcePoint" />
            <mxPoint x="1090" y="490" as="targetPoint" />
          </mxGeometry>
        </mxCell>
        <mxCell id="jJeBZXFCm9ks7arBBFyv-53" value="" style="endArrow=none;html=1;rounded=0;entryX=0.5;entryY=0;entryDx=0;entryDy=0;exitX=0.5;exitY=1;exitDx=0;exitDy=0;" parent="1" source="jJeBZXFCm9ks7arBBFyv-9" target="jJeBZXFCm9ks7arBBFyv-13" edge="1">
          <mxGeometry width="50" height="50" relative="1" as="geometry">
            <mxPoint x="1040" y="540" as="sourcePoint" />
            <mxPoint x="1090" y="490" as="targetPoint" />
          </mxGeometry>
        </mxCell>
        <mxCell id="jJeBZXFCm9ks7arBBFyv-54" value="" style="endArrow=none;html=1;rounded=0;entryX=0.5;entryY=0;entryDx=0;entryDy=0;exitX=0;exitY=1;exitDx=0;exitDy=0;" parent="1" source="jJeBZXFCm9ks7arBBFyv-9" target="jJeBZXFCm9ks7arBBFyv-16" edge="1">
          <mxGeometry width="50" height="50" relative="1" as="geometry">
            <mxPoint x="1040" y="540" as="sourcePoint" />
            <mxPoint x="1090" y="490" as="targetPoint" />
          </mxGeometry>
        </mxCell>
        <mxCell id="glMi6fM13mVPSMuhK95_-1" value="&lt;u&gt;Személyisz.&lt;/u&gt;" style="rhombus;whiteSpace=wrap;html=1;" vertex="1" parent="1">
          <mxGeometry x="1263" y="445" width="80" height="50" as="geometry" />
        </mxCell>
        <mxCell id="glMi6fM13mVPSMuhK95_-2" value="" style="endArrow=none;html=1;rounded=0;entryX=1;entryY=1;entryDx=0;entryDy=0;exitX=0.5;exitY=0;exitDx=0;exitDy=0;" edge="1" parent="1" source="glMi6fM13mVPSMuhK95_-1" target="jJeBZXFCm9ks7arBBFyv-9">
          <mxGeometry width="50" height="50" relative="1" as="geometry">
            <mxPoint x="1090" y="530" as="sourcePoint" />
            <mxPoint x="1140" y="480" as="targetPoint" />
          </mxGeometry>
        </mxCell>
        <mxCell id="glMi6fM13mVPSMuhK95_-6" style="edgeStyle=orthogonalEdgeStyle;rounded=0;orthogonalLoop=1;jettySize=auto;html=1;exitX=0.5;exitY=1;exitDx=0;exitDy=0;entryX=0.5;entryY=1;entryDx=0;entryDy=0;dashed=1;" edge="1" parent="1" source="glMi6fM13mVPSMuhK95_-4" target="jJeBZXFCm9ks7arBBFyv-72">
          <mxGeometry relative="1" as="geometry">
            <mxPoint x="-1070" y="530" as="targetPoint" />
            <Array as="points">
              <mxPoint x="1410" y="970" />
              <mxPoint x="-1440" y="970" />
              <mxPoint x="-1440" y="490" />
            </Array>
          </mxGeometry>
        </mxCell>
        <mxCell id="glMi6fM13mVPSMuhK95_-4" value="Rendelés_id" style="rhombus;whiteSpace=wrap;html=1;" vertex="1" parent="1">
          <mxGeometry x="1370" y="445" width="80" height="50" as="geometry" />
        </mxCell>
        <mxCell id="glMi6fM13mVPSMuhK95_-5" value="" style="endArrow=none;html=1;rounded=0;entryX=1;entryY=0.5;entryDx=0;entryDy=0;exitX=0.5;exitY=0;exitDx=0;exitDy=0;" edge="1" parent="1" source="glMi6fM13mVPSMuhK95_-4" target="jJeBZXFCm9ks7arBBFyv-9">
          <mxGeometry width="50" height="50" relative="1" as="geometry">
            <mxPoint x="1070" y="530" as="sourcePoint" />
            <mxPoint x="1120" y="480" as="targetPoint" />
          </mxGeometry>
        </mxCell>
        <mxCell id="glMi6fM13mVPSMuhK95_-9" style="edgeStyle=orthogonalEdgeStyle;rounded=0;orthogonalLoop=1;jettySize=auto;html=1;entryX=0.5;entryY=1;entryDx=0;entryDy=0;dashed=1;" edge="1" parent="1" source="glMi6fM13mVPSMuhK95_-7" target="jJeBZXFCm9ks7arBBFyv-72">
          <mxGeometry relative="1" as="geometry">
            <mxPoint x="-1090" y="600" as="targetPoint" />
            <Array as="points">
              <mxPoint x="650" y="950" />
              <mxPoint x="-1420" y="950" />
            </Array>
          </mxGeometry>
        </mxCell>
        <mxCell id="glMi6fM13mVPSMuhK95_-7" value="Rendelés_id" style="rhombus;whiteSpace=wrap;html=1;" vertex="1" parent="1">
          <mxGeometry x="610" y="445" width="80" height="50" as="geometry" />
        </mxCell>
        <mxCell id="glMi6fM13mVPSMuhK95_-8" value="" style="endArrow=none;html=1;rounded=0;entryX=0.5;entryY=0;entryDx=0;entryDy=0;exitX=1;exitY=0.5;exitDx=0;exitDy=0;" edge="1" parent="1" source="jJeBZXFCm9ks7arBBFyv-8" target="glMi6fM13mVPSMuhK95_-7">
          <mxGeometry width="50" height="50" relative="1" as="geometry">
            <mxPoint x="590" y="510" as="sourcePoint" />
            <mxPoint x="640" y="460" as="targetPoint" />
          </mxGeometry>
        </mxCell>
        <mxCell id="glMi6fM13mVPSMuhK95_-11" value="Raktár_alkalmazott" style="ellipse;shape=doubleEllipse;whiteSpace=wrap;html=1;" vertex="1" parent="1">
          <mxGeometry x="-600" y="370" width="120" height="50" as="geometry" />
        </mxCell>
        <mxCell id="glMi6fM13mVPSMuhK95_-12" value="Elérhető" style="ellipse;whiteSpace=wrap;html=1;" vertex="1" parent="1">
          <mxGeometry x="-580" y="452.5" width="80" height="35" as="geometry" />
        </mxCell>
        <mxCell id="glMi6fM13mVPSMuhK95_-14" value="" style="endArrow=none;html=1;rounded=0;exitX=0.5;exitY=0;exitDx=0;exitDy=0;entryX=0.5;entryY=1;entryDx=0;entryDy=0;" edge="1" parent="1" source="glMi6fM13mVPSMuhK95_-12" target="glMi6fM13mVPSMuhK95_-11">
          <mxGeometry width="50" height="50" relative="1" as="geometry">
            <mxPoint x="-430" y="450" as="sourcePoint" />
            <mxPoint x="-380" y="400" as="targetPoint" />
          </mxGeometry>
        </mxCell>
        <mxCell id="glMi6fM13mVPSMuhK95_-19" style="edgeStyle=orthogonalEdgeStyle;rounded=0;orthogonalLoop=1;jettySize=auto;html=1;entryX=0.5;entryY=1;entryDx=0;entryDy=0;dashed=1;" edge="1" parent="1" source="glMi6fM13mVPSMuhK95_-15" target="jJeBZXFCm9ks7arBBFyv-173">
          <mxGeometry relative="1" as="geometry">
            <Array as="points">
              <mxPoint x="-413" y="720" />
              <mxPoint x="190" y="720" />
            </Array>
          </mxGeometry>
        </mxCell>
        <mxCell id="glMi6fM13mVPSMuhK95_-15" value="Alkalmazott_id" style="rhombus;whiteSpace=wrap;html=1;" vertex="1" parent="1">
          <mxGeometry x="-463" y="450" width="100" height="40" as="geometry" />
        </mxCell>
        <mxCell id="glMi6fM13mVPSMuhK95_-20" style="edgeStyle=orthogonalEdgeStyle;rounded=0;orthogonalLoop=1;jettySize=auto;html=1;entryX=0.5;entryY=1;entryDx=0;entryDy=0;dashed=1;" edge="1" parent="1" source="glMi6fM13mVPSMuhK95_-16" target="jJeBZXFCm9ks7arBBFyv-132">
          <mxGeometry relative="1" as="geometry">
            <Array as="points">
              <mxPoint x="-670" y="720" />
              <mxPoint x="-830" y="720" />
            </Array>
          </mxGeometry>
        </mxCell>
        <mxCell id="glMi6fM13mVPSMuhK95_-16" value="Raktár_id" style="rhombus;whiteSpace=wrap;html=1;" vertex="1" parent="1">
          <mxGeometry x="-720" y="450" width="100" height="40" as="geometry" />
        </mxCell>
        <mxCell id="glMi6fM13mVPSMuhK95_-17" value="" style="endArrow=none;html=1;rounded=0;entryX=0.5;entryY=0;entryDx=0;entryDy=0;exitX=1;exitY=1;exitDx=0;exitDy=0;" edge="1" parent="1" source="glMi6fM13mVPSMuhK95_-11" target="glMi6fM13mVPSMuhK95_-15">
          <mxGeometry width="50" height="50" relative="1" as="geometry">
            <mxPoint x="-570" y="470" as="sourcePoint" />
            <mxPoint x="-520" y="420" as="targetPoint" />
          </mxGeometry>
        </mxCell>
        <mxCell id="glMi6fM13mVPSMuhK95_-18" value="" style="endArrow=none;html=1;rounded=0;exitX=0.5;exitY=0;exitDx=0;exitDy=0;entryX=0;entryY=1;entryDx=0;entryDy=0;" edge="1" parent="1" source="glMi6fM13mVPSMuhK95_-16" target="glMi6fM13mVPSMuhK95_-11">
          <mxGeometry width="50" height="50" relative="1" as="geometry">
            <mxPoint x="-570" y="470" as="sourcePoint" />
            <mxPoint x="-520" y="420" as="targetPoint" />
          </mxGeometry>
        </mxCell>
        <mxCell id="glMi6fM13mVPSMuhK95_-24" style="edgeStyle=orthogonalEdgeStyle;rounded=0;orthogonalLoop=1;jettySize=auto;html=1;entryX=0.5;entryY=1;entryDx=0;entryDy=0;dashed=1;" edge="1" parent="1" source="glMi6fM13mVPSMuhK95_-22" target="jJeBZXFCm9ks7arBBFyv-72">
          <mxGeometry relative="1" as="geometry">
            <Array as="points">
              <mxPoint x="-1270" y="720" />
              <mxPoint x="-1410" y="720" />
              <mxPoint x="-1410" y="490" />
            </Array>
          </mxGeometry>
        </mxCell>
        <mxCell id="glMi6fM13mVPSMuhK95_-22" value="Rendelés_id" style="rhombus;whiteSpace=wrap;html=1;" vertex="1" parent="1">
          <mxGeometry x="-1320" y="450" width="100" height="40" as="geometry" />
        </mxCell>
        <mxCell id="glMi6fM13mVPSMuhK95_-23" value="" style="endArrow=none;dashed=1;html=1;rounded=0;exitX=0.176;exitY=0.675;exitDx=0;exitDy=0;exitPerimeter=0;entryX=0.78;entryY=0.669;entryDx=0;entryDy=0;entryPerimeter=0;" edge="1" parent="1" source="glMi6fM13mVPSMuhK95_-22" target="glMi6fM13mVPSMuhK95_-22">
          <mxGeometry width="50" height="50" relative="1" as="geometry">
            <mxPoint x="-1280" y="370" as="sourcePoint" />
            <mxPoint x="-1230" y="320" as="targetPoint" />
          </mxGeometry>
        </mxCell>
        <mxCell id="glMi6fM13mVPSMuhK95_-25" value="" style="endArrow=none;html=1;rounded=0;exitX=0.5;exitY=0;exitDx=0;exitDy=0;entryX=0;entryY=0.5;entryDx=0;entryDy=0;" edge="1" parent="1" source="glMi6fM13mVPSMuhK95_-22" target="jJeBZXFCm9ks7arBBFyv-6">
          <mxGeometry width="50" height="50" relative="1" as="geometry">
            <mxPoint x="-1210" y="360" as="sourcePoint" />
            <mxPoint x="-1160" y="310" as="targetPoint" />
          </mxGeometry>
        </mxCell>
        <mxCell id="glMi6fM13mVPSMuhK95_-26" value="" style="endArrow=none;html=1;rounded=0;entryX=0.5;entryY=0;entryDx=0;entryDy=0;exitX=0.5;exitY=1;exitDx=0;exitDy=0;" edge="1" parent="1" source="jJeBZXFCm9ks7arBBFyv-1" target="glMi6fM13mVPSMuhK95_-11">
          <mxGeometry width="50" height="50" relative="1" as="geometry">
            <mxPoint x="-20" y="390" as="sourcePoint" />
            <mxPoint x="30" y="340" as="targetPoint" />
          </mxGeometry>
        </mxCell>
        <mxCell id="jJeBZXFCm9ks7arBBFyv-14" value="Irányítószám" style="ellipse;whiteSpace=wrap;html=1;" parent="1" vertex="1">
          <mxGeometry x="985" y="545" width="80" height="30" as="geometry" />
        </mxCell>
        <mxCell id="jJeBZXFCm9ks7arBBFyv-19" value="Település" style="ellipse;whiteSpace=wrap;html=1;" parent="1" vertex="1">
          <mxGeometry x="1075" y="545" width="60" height="30" as="geometry" />
        </mxCell>
        <mxCell id="jJeBZXFCm9ks7arBBFyv-20" value="Utca" style="ellipse;whiteSpace=wrap;html=1;" parent="1" vertex="1">
          <mxGeometry x="1145" y="545" width="60" height="30" as="geometry" />
        </mxCell>
        <mxCell id="jJeBZXFCm9ks7arBBFyv-21" value="Házszám" style="ellipse;whiteSpace=wrap;html=1;" parent="1" vertex="1">
          <mxGeometry x="915" y="545" width="60" height="30" as="geometry" />
        </mxCell>
        <mxCell id="jJeBZXFCm9ks7arBBFyv-22" value="Cím" style="ellipse;whiteSpace=wrap;html=1;" parent="1" vertex="1">
          <mxGeometry x="1030" y="455" width="60" height="30" as="geometry" />
        </mxCell>
        <mxCell id="jJeBZXFCm9ks7arBBFyv-23" value="" style="endArrow=none;html=1;rounded=0;entryX=0;entryY=1;entryDx=0;entryDy=0;exitX=0.5;exitY=0;exitDx=0;exitDy=0;" parent="1" source="jJeBZXFCm9ks7arBBFyv-21" target="jJeBZXFCm9ks7arBBFyv-22" edge="1">
          <mxGeometry width="50" height="50" relative="1" as="geometry">
            <mxPoint x="865" y="495" as="sourcePoint" />
            <mxPoint x="915" y="445" as="targetPoint" />
          </mxGeometry>
        </mxCell>
        <mxCell id="jJeBZXFCm9ks7arBBFyv-24" value="" style="endArrow=none;html=1;rounded=0;entryX=0.5;entryY=1;entryDx=0;entryDy=0;exitX=0.5;exitY=0;exitDx=0;exitDy=0;" parent="1" source="jJeBZXFCm9ks7arBBFyv-14" target="jJeBZXFCm9ks7arBBFyv-22" edge="1">
          <mxGeometry width="50" height="50" relative="1" as="geometry">
            <mxPoint x="865" y="495" as="sourcePoint" />
            <mxPoint x="915" y="445" as="targetPoint" />
          </mxGeometry>
        </mxCell>
        <mxCell id="jJeBZXFCm9ks7arBBFyv-25" value="" style="endArrow=none;html=1;rounded=0;entryX=0.5;entryY=0;entryDx=0;entryDy=0;exitX=0.5;exitY=1;exitDx=0;exitDy=0;" parent="1" source="jJeBZXFCm9ks7arBBFyv-22" target="jJeBZXFCm9ks7arBBFyv-19" edge="1">
          <mxGeometry width="50" height="50" relative="1" as="geometry">
            <mxPoint x="865" y="495" as="sourcePoint" />
            <mxPoint x="915" y="445" as="targetPoint" />
          </mxGeometry>
        </mxCell>
        <mxCell id="jJeBZXFCm9ks7arBBFyv-26" value="" style="endArrow=none;html=1;rounded=0;entryX=1;entryY=1;entryDx=0;entryDy=0;exitX=0.5;exitY=0;exitDx=0;exitDy=0;" parent="1" source="jJeBZXFCm9ks7arBBFyv-20" target="jJeBZXFCm9ks7arBBFyv-22" edge="1">
          <mxGeometry width="50" height="50" relative="1" as="geometry">
            <mxPoint x="865" y="495" as="sourcePoint" />
            <mxPoint x="915" y="445" as="targetPoint" />
          </mxGeometry>
        </mxCell>
        <mxCell id="glMi6fM13mVPSMuhK95_-28" value="" style="endArrow=none;dashed=1;html=1;rounded=0;entryX=0.124;entryY=0.637;entryDx=0;entryDy=0;entryPerimeter=0;exitX=0.901;exitY=0.628;exitDx=0;exitDy=0;exitPerimeter=0;" edge="1" parent="1" source="glMi6fM13mVPSMuhK95_-4" target="glMi6fM13mVPSMuhK95_-4">
          <mxGeometry width="50" height="50" relative="1" as="geometry">
            <mxPoint x="1260" y="530" as="sourcePoint" />
            <mxPoint x="1310" y="480" as="targetPoint" />
          </mxGeometry>
        </mxCell>
        <mxCell id="glMi6fM13mVPSMuhK95_-30" value="" style="endArrow=none;dashed=1;html=1;rounded=0;exitX=0.115;exitY=0.622;exitDx=0;exitDy=0;exitPerimeter=0;entryX=0.857;entryY=0.622;entryDx=0;entryDy=0;entryPerimeter=0;" edge="1" parent="1" source="glMi6fM13mVPSMuhK95_-7" target="glMi6fM13mVPSMuhK95_-7">
          <mxGeometry width="50" height="50" relative="1" as="geometry">
            <mxPoint x="700" y="480" as="sourcePoint" />
            <mxPoint x="750" y="430" as="targetPoint" />
          </mxGeometry>
        </mxCell>
        <mxCell id="glMi6fM13mVPSMuhK95_-31" value="" style="endArrow=none;dashed=1;html=1;rounded=0;exitX=0.135;exitY=0.645;exitDx=0;exitDy=0;exitPerimeter=0;entryX=0.864;entryY=0.659;entryDx=0;entryDy=0;entryPerimeter=0;" edge="1" parent="1" source="glMi6fM13mVPSMuhK95_-15" target="glMi6fM13mVPSMuhK95_-15">
          <mxGeometry width="50" height="50" relative="1" as="geometry">
            <mxPoint x="-430" y="460" as="sourcePoint" />
            <mxPoint x="-380" y="410" as="targetPoint" />
          </mxGeometry>
        </mxCell>
        <mxCell id="glMi6fM13mVPSMuhK95_-32" value="" style="endArrow=none;dashed=1;html=1;rounded=0;exitX=0.188;exitY=0.623;exitDx=0;exitDy=0;exitPerimeter=0;entryX=0.84;entryY=0.616;entryDx=0;entryDy=0;entryPerimeter=0;" edge="1" parent="1" source="glMi6fM13mVPSMuhK95_-16" target="glMi6fM13mVPSMuhK95_-16">
          <mxGeometry width="50" height="50" relative="1" as="geometry">
            <mxPoint x="-690" y="470" as="sourcePoint" />
            <mxPoint x="-640" y="420" as="targetPoint" />
          </mxGeometry>
        </mxCell>
      </root>
    </mxGraphModel>
  </diagram>
</mxfile>
